<?xml version="1.0" encoding="utf-8"?>
<!-- Generator: Adobe Illustrator 22.0.1, SVG Export Plug-In . SVG Version: 6.00 Build 0)  -->
<svg version="1.1" id="Layer_1" xmlns="http://www.w3.org/2000/svg" xmlns:xlink="http://www.w3.org/1999/xlink" x="0px" y="0px"
	 width="16px" height="16px" viewBox="0 0 16 16" style="enable-background:new 0 0 16 16;" xml:space="preserve">
<path d="M16,8.6c0,0.1,0-0.5-0.1-0.6c0,0-0.1-0.2-0.1-0.2c0,0-0.1-0.1-0.1-0.2c-0.1-0.1-0.2-0.1-0.3-0.2c-0.3-0.4-0.5-0.5-1-0.6
	c-0.4-0.1-1.3-0.3-1.7-0.1c-0.6,0.1-1,0.2-1.5,0.4c0-0.2,0.2-0.7,0.1-1c0,0,0.1-0.3,0.1-0.3l-0.1,0c0,0,0.6-0.1,0.6-0.1
	c0.1-0.1,0.1-0.5,0.2-0.5c0-0.1-0.7,0-0.7,0L11.3,5l-0.6,0l-0.2-0.2l-0.1,0.1L9.6,4.8C9.3,4.7,9.3,5.1,9.3,5.1
	c0,0.1,0.9,0.4,0.9,0.4c0,0-0.1,0.3-0.1,0.3c0,0,0,0.1,0,0.1C9.9,6,9.7,6.1,9.6,6.1C9.6,6.1,9.2,6,9.2,6c0,0-0.3,0-0.3,0
	C8.8,6,7.7,5.9,7.6,5.9c0,0-0.2,0-0.4,0c0,0-0.1,0.1-0.1,0.1C7.1,6,6.9,5.9,6.9,5.9c0,0-0.4,0-0.4,0c-0.1,0-0.2,0-0.2,0
	c-0.2,0-0.6,0-0.9-0.1c0,0,0,0-0.1,0c0,0,0,0,0,0c0.2-0.1,0.6-1,0.6-1.1c0,0,0.2-0.3,0.2-0.3L6,4.2c0,0,0.1-0.1,0.1-0.1
	c0.1-0.1,0.4-0.4,0.5-0.4c0-0.1-0.3-0.1-0.3-0.1l0.1,0L5.8,3.4L5.7,3.1L5.5,3.2L5.3,3.1c0,0-0.1,0.2-0.1,0.2c-0.1,0.1,0,0.5-0.1,0.5
	c0,0-0.2,0.3-0.2,0.3c0,0-0.1,0.2-0.1,0.2c0,0.1-0.4,0.8-0.5,0.9c0,0-0.1,0.2-0.1,0.3c0,0,0,0.1,0,0.1c0,0-0.1,0.1-0.1,0.2
	c0,0-0.1,0.3-0.1,0.3C4.1,6.1,4,6.2,4,6.2C4,6.4,4,6.3,3.8,6.7C3.5,6.6,3,6.5,2.7,6.6c-1,0.1-2.4,0.6-2.6,1.8c0,0,0.1,0.1,0.1,0.1
	c0,0-0.2,0.2-0.2,0.1c-0.2,1,0,2.3,0.9,2.9c0.1,0.1,0.3,0.3,0.4,0.3c0.2,0.1,0.9,0.2,1.1,0.2c0.1,0,0.7,0,0.6,0c0.2,0,0.3,0,0.5-0.1
	c0,0,0.4,0,0.5-0.1C5,11.2,5.8,10.6,6,9.6c0.1,0,0.2-0.1,0.3,0c0.2,0,0.5,0,0.8,0l0-0.1c0.3,0,0.2-0.1,0.4,0c0.2,0.1,1.2,0.1,1.4,0
	c0,0,0.3,0,0.4,0l0-0.1c0,0,0.1,0.1,0.1,0.1c0.1,0,0.4,0.1,0.5,0.2c0.1,0.7,0.4,1.4,1,1.8c0.1,0.1,0.3,0.3,0.4,0.3
	c0.2,0.1,0.9,0.2,1.1,0.2c0.1,0,0.7,0,0.6,0c0.2,0,0.3,0,0.5-0.1c0,0,0.4,0,0.5-0.1C15.2,11,16.1,10.2,16,8.6z M10.1,8.5L10.1,8.5
	L10.1,8.5C10.1,8.4,10.1,8.4,10.1,8.5C10.1,8.5,10.1,8.5,10.1,8.5z M4.6,10.2c-0.2,0.3-0.6,0.5-0.9,0.6c-0.1,0-0.4,0.1-0.3,0.1
	c-0.1,0-0.2,0-0.3,0c0,0-0.3,0-0.4,0c-0.4,0-0.7-0.1-1-0.3c-0.6-0.4-0.8-1.2-0.6-1.9c0,0.1,0.1,0,0.1-0.1c0,0-0.1,0-0.1,0
	c0.1-0.8,1.1-1.1,1.7-1.2c0.3-0.1,1,0,1.3,0.1c0.1,0.1,0.1,0.1,0.1,0.1c0,0,0,0,0,0C4.5,7.8,4.5,7.9,4.6,8c0,0.1,0.1,0.1,0.2,0.2
	c0,0,0.1,0.1,0.1,0.1c0,0,0.1,0.1,0.1,0.1C5,8.5,5.1,8.9,5,8.8C5.1,9.4,5,9.8,4.6,10.2z M9.3,8.4c0,0-0.4,0-0.4,0c0,0-0.2,0-0.2,0
	c-0.1,0-1-0.1-1,0c0,0-0.2,0-0.3,0c0,0-0.1,0.1-0.1,0.1c0,0-0.2-0.1-0.2-0.1c0,0-0.3,0.1-0.3,0.1c-0.1,0-0.2,0-0.2,0
	c-0.2,0-0.1,0-0.5,0C6,8.4,6,8.1,6,8c0,0-0.1-0.2-0.1-0.2c0,0-0.1-0.1-0.1-0.2C5.7,7.5,5.5,7.5,5.5,7.4C5.2,7.1,5.1,7.1,4.8,6.9
	c0,0,0,0,0,0c0-0.1,0.1-0.2,0.1-0.3c0,0,0.1,0,0.1,0c0,0,0.1,0,0.1,0c0,0,0.1,0.1,0.1,0.1c0.2,0.1,0.5,0,0.7,0
	c0.3,0,0.6,0.1,0.9,0.1l0,0c0.3,0,0.2-0.1,0.5,0C7.7,6.8,8.6,6.9,9,6.8c0,0,0.4,0.1,0.5,0.1l0.1-0.1c0,0,0.1,0.1,0.1,0.1
	c0.1,0,0.2,0,0.3,0.1c0,0,0,0,0,0c0,0,0,0.2,0,0.3c0,0,0.1,0.1,0.1,0.1c0,0-0.1,0.2-0.1,0.2c0,0,0.1,0.3,0.1,0.3c0,0.1,0,0.2,0,0.2
	c0.1,0.2,0,0.1,0,0.3c0,0,0,0.1,0,0.2l0-0.1c0,0-0.2,0-0.2,0C9.7,8.2,9.4,8.4,9.3,8.4z M14.4,10.1c-0.2,0.2-0.5,0.4-0.8,0.6
	c-0.1,0-0.3,0.1-0.3,0.1c-0.1,0-0.2,0-0.3,0c0,0-0.3,0-0.4,0c-0.2,0-0.6,0-0.7-0.1c0,0-0.2-0.2-0.2-0.2c-0.5-0.3-0.7-1.1-0.5-1.7
	c0,0.1,0.1,0,0.1-0.1c0,0-0.1,0-0.1,0c0.1-0.7,0.9-1,1.5-1.1c0.5-0.2,1.3,0.1,1.6,0.5c0,0.1,0.1,0.1,0.2,0.1c0,0,0.1,0.1,0.1,0.1
	c0,0,0.1,0.1,0.1,0.1c0,0.1,0.1,0.4,0,0.4C14.8,9.3,14.7,9.7,14.4,10.1z"/>
</svg>
