<?xml version="1.0" encoding="utf-8"?>
<!-- Generator: Adobe Illustrator 22.0.1, SVG Export Plug-In . SVG Version: 6.00 Build 0)  -->
<svg version="1.1" id="Layer_1" xmlns="http://www.w3.org/2000/svg" xmlns:xlink="http://www.w3.org/1999/xlink" x="0px" y="0px"
	 width="16px" height="16px" viewBox="0 0 16 16" style="enable-background:new 0 0 16 16;" xml:space="preserve">
<g>
	<path d="M16,8.3l-2.7-3.4l-0.2,0c-0.2,0-0.2,0-0.4,0l-1.1,0l-0.2,0l-0.4,0c-2.2-0.1-4.4,0-6.7,0L4,4.8l-1,0l-0.4,0l-0.1,0L2.2,4.7
		L1,4.8c-0.2,0-0.5,0.2-0.5,0.2L0.4,5.4L0.1,5.8c0,0.7,0,1.3,0,2L0.1,8L0.1,8.2v0.3L0,8.8l0.1,0.4v0.6l0,0l0,0.2c0,0.3,0,0.7,0.1,1
		l0.2,0.5l0.5-0.1c1.2,0.2,2.5,0,3.6,0c1.2,0,2.3,0,3.5,0c2.4,0,4.8,0,7.2,0l0.3-0.2l0.3-0.1l0.1-0.2C16.1,10.2,16,9.2,16,8.3z
		 M4.6,8.1L4.6,8.1L4.5,8.2L4.5,8.3H4.2l0,0l0,0l0,0c0,0-0.1,0-0.1,0l-0.1,0l0,0c-0.7,0-1.3,0-2,0l-0.1,0l-0.2,0c-0.1,0-0.2,0-0.3,0
		l-0.1,0l0-0.2c0-0.1,0-0.3,0-0.4l0-0.1l0,0V7.4l0-0.2l0-0.1V6.9l0-0.1l0-0.1c0-0.3,0-0.6,0-0.8l0.1-0.2l0-0.2c0,0,0.1-0.1,0.1-0.1
		l0.3,0l0.1,0l0,0l0.1,0l0.2,0l0.1,0c0,0,1.4,0,1.4,0c0,0,0.1,0,0.1,0l0.1,0l0.1,0l0.2,0c0,0,0.1,0,0.1,0l0.1,0l0.1,0l0.1,0l0.2,0
		l0.2,0.2l0,0.2v0.3C4.7,6.9,4.7,7.5,4.6,8.1z M9.8,8.1L9.8,8.1L9.7,8.2L9.6,8.3H9.3l0,0l0,0l0,0c0,0-0.1,0-0.1,0L9,8.4l0,0
		c-0.7,0-1.3,0-2,0l-0.1,0l-0.2,0c-0.1,0-0.2,0-0.3,0l-0.1,0l0-0.2c0-0.1,0-0.3,0-0.4l0-0.1l0,0V7.4l0-0.2l0-0.1V6.9l0-0.1l0-0.1
		c0-0.3,0-0.6,0-0.8l0.1-0.2l0-0.2c0,0,0.1-0.1,0.1-0.1l0.3,0l0.1,0l0,0l0.1,0l0.2,0l0.1,0c0,0,1.4,0,1.4,0c0,0,0.1,0,0.1,0l0.1,0
		l0.1,0l0.2,0c0,0,0.1,0,0.1,0l0.1,0l0.1,0l0.1,0l0.2,0l0.2,0.2l0,0.2v0.3C9.8,6.9,9.9,7.5,9.8,8.1z M14.7,8.1L14.7,8.1l-0.1,0.1
		l-0.1,0.1c-0.1,0-0.3,0-0.4,0l0,0l-0.1,0l0,0c0,0-0.1,0-0.1,0l-0.2,0l-0.1,0c-0.4,0-0.9,0-1.3,0l-0.1,0l-0.3,0c-0.1,0-0.3,0-0.4,0
		l-0.2,0l0-0.2c0-0.1,0-0.3,0-0.4l0-0.1l0,0V7.4l0-0.2l0-0.1V7l0-0.1l0-0.1c0-0.3,0-0.5,0-0.8l0.1-0.2l0-0.2c0,0,0.1-0.1,0.2-0.1
		l0.3,0l0.1,0l0,0l0.1,0l0.3,0l0.7,0l1.3,1.8l0.3,0.5C14.8,8,14.7,8.1,14.7,8.1z M15.4,10.2C15.4,10.2,15.3,10.2,15.4,10.2
		c-0.1,0-0.1,0-0.1,0c0,0-0.1,0-0.1,0c0,0-0.2,0-0.2,0c0,0,0,0-0.1,0c-0.1-0.1-0.2-0.3-0.1-0.4c0,0,0,0,0,0c0,0,0,0,0,0
		c0-0.2,0.3-0.3,0.4-0.3c0.1,0,0.3,0,0.4,0.1c0,0,0,0,0,0c0,0,0,0,0,0c0,0,0,0,0,0c0,0,0,0.1,0,0.1c0,0,0,0,0,0
		C15.7,10,15.6,10.1,15.4,10.2z"/>
	<path d="M15.4,11.8c-0.1,0-0.6,0-0.6,0c-0.5,0-1.4,0.1-1.7,0.1c-0.2,0-1.2,0-1.2,0c0,0-0.8,0-0.7,0c-0.3,0-3,0-3.3,0c0,0-0.6,0-1,0
		c0,0-0.4,0-0.4,0c-0.1,0-0.6,0-0.7,0c0,0-1,0-1,0c-0.2,0-0.7,0-0.6,0c-0.7,0.2-1.7,0-2.4,0c-0.1,0.1-0.9,0-1,0c0,0-0.4,0-0.4,0
		c0,0.1-0.1,0.4,0.1,0.4c0.1,0,0.6,0,0.9,0c0.1,0,0.2,0,0.3,0c0,0,0.3,0,0.4,0c0.5,0,1.3,0,1.7,0c0.7,0,1.6,0,2.4,0l-0.1,0
		c0.8,0,0.5,0,1.3,0c1.4,0.1,2.9,0.1,4.4,0c0,0,1.1,0,1.3,0l0.2,0c0.1,0,0.3,0,0.3,0c0.3,0,2.2,0,2.2,0L15.4,11.8L15.4,11.8z"/>
	<path d="M6,4.1c0,0,0.2,0,0.2,0c0,0,0.1,0,0.1,0c0,0,0.1,0,0.1,0c0.1,0,0.3,0,0.4,0c0.2,0,0.4,0,0.6,0l0,0c0.2,0,0.1,0,0.3,0
		c0.2,0.1,0.9,0.1,1.1,0c0,0,0.3,0,0.3,0l0,0c0,0,0.1,0,0.1,0c0.1,0,0.5,0,0.5,0l0-0.4l0-0.1c0,0-0.1,0-0.2,0
		c-0.1,0-0.4,0.1-0.4,0.1c0,0-0.3,0-0.3,0c0,0-0.2,0-0.2,0c-0.1,0-0.7,0-0.8,0c0,0-0.2,0-0.2,0c0,0-0.1,0-0.1,0c0,0-0.1,0-0.2,0
		c0,0-0.2,0-0.2,0c-0.1,0-0.2,0-0.2,0c-0.2,0-0.4,0-0.6,0C6.4,3.5,5.6,4,6,4.1z"/>
</g>
</svg>
